<svg xmlns="http://www.w3.org/2000/svg" width="133.333" height="133.333" viewBox="0 0 100 100"><path d="M43.8 10.3c-1.4.7-3.4 1.9-4.5 2.8-1 .9-5.7 3.7-10.5 6.3-5.3 2.9-10.2 6.4-12.6 9.1-6.5 7.4-9.1 20.6-5.6 29.1C12.5 62.2 20.7 71 23.2 71c.9 0 2 .5 2.3 1.1.4.6 1.3.8 2 .5.8-.3 1.5.7 1.9 2.8.7 3.8 3.4 6.5 9.6 9.7 7.2 3.7 14.2 3.1 27.5-2.5C83.2 75.6 88 70 89.3 56c.4-4.4.2-4.8-4.9-10-2.9-3-7-8.5-9-12.2-2.1-3.7-4.6-7.5-5.6-8.5-1.9-1.7-12.7-5.7-13.5-4.9-.2.2.4.7 1.5 1 1.1.4 2.3 1.4 2.6 2.2.5 1.3.3 1.3-1.5 0-1.2-.8-2.6-1.3-3.3-1-1 .3-6.6-10-6.6-12.4 0-1.5-1.7-1.4-5.2.1z"/></svg>